<?xml version="1.0" standalone="no"?>
<!DOCTYPE svg PUBLIC "-//W3C//DTD SVG 1.1//EN" "http://www.w3.org/Graphics/SVG/1.1/DTD/svg11.dtd">
<svg t="1773836619217" class="icon" viewBox="0 0 1026 1024" version="1.1" xmlns="http://www.w3.org/2000/svg" p-id="7408" xmlns:xlink="http://www.w3.org/1999/xlink" width="128.25" height="128">
  <path d="M685.638621 105.931034c-60.186483 0-112.569379 30.013793-137.992828 73.798621C522.222345 135.944828 469.804138 105.931034 409.652966 105.931034c-91.277241 0-146.273103 77.329655-146.273104 151.622621 0 176.60469 264.545103 329.198345 275.968 335.854345a16.772414 16.772414 0 0 0 8.297931 2.048 15.554207 15.554207 0 0 0 8.297931-2.048c11.422897-6.656 275.968-159.249655 275.968-335.854345C831.911724 183.26069 777.445517 105.931034 685.638621 105.931034m-101.693793 644.678621v-0.476689c0-4.06069 1.553655-8.174345 4.148965-10.68138l213.733517-227.963586s38.894345-33.580138 73.622069-16.295724c34.798345 17.302069 6.779586 85.98069 6.779587 85.98069l-36.334345 51.923862 43.608276-25.458759s24.893793-16.295724 24.364137-69.208276c-0.512-59.533241-0.512-164.334345-0.512-164.334345s4.148966-44.773517 48.251587-51.906207c32.662069-5.579034 53.918897 32.556138 54.942896 56.973242 1.588966 24.417103 8.333241 88.064 9.357242 129.765517 1.05931 41.736828 10.893241 169.43669-60.151173 233.560276-46.697931 42.231172-63.841103 68.166621-160.83862 124.680827v137.869242s2.59531 17.337379-20.744828 17.337379H604.19531s-23.869793 2.030345-24.399448-19.862069c0-25.458759 3.636966-213.203862 4.148966-251.904m-70.532414 0v-0.476689a15.077517 15.077517 0 0 0-4.184276-10.68138L295.547586 511.488s-38.894345-33.580138-73.675034-16.295724c-34.745379 17.302069-6.726621 85.98069-6.726621 85.98069l36.299035 51.923862-43.555311-25.458759s-24.893793-16.295724-24.381793-69.208276c0.512-59.533241 0.512-164.334345 0.512-164.334345s-4.148966-44.773517-48.251586-51.906207c-32.662069-5.579034-53.954207 32.556138-54.995862 56.973242-1.553655 24.417103-8.297931 88.064-9.321931 129.765517-0.529655 41.736828-10.875586 169.43669 60.168827 233.560276 46.697931 42.231172 63.788138 68.166621 160.838621 124.680827v137.869242s-2.612966 17.337379 20.744828 17.337379h179.994482s23.852138 2.030345 24.364138-19.862069c0-25.458759-3.61931-213.203862-4.13131-251.904" fill="#e54d98" p-id="7409"></path>
</svg>